# xmcd
#
# Track frame offsets:
#	150
#	39586
#	52416
#	68248
#	84117
#	100453
#	115650
#	128584
#	143773
#	156305
#	172876
#	188823
#	204773
#	221073
#	235062
#	246539
#	259809
#	274958
#	289718
#	305092
#	323679
#
# Disc length: 4498 seconds
#
# Revision: 0
# Processed by: cddbd v1.5.2PL0 Copyright (c) Steve Scherf et al.
# Submitted via: EasyCDDAExtractor 2010.6.0.0
#
DISCID=38119015
DTITLE=Various Artist - Best Club Anthems 2005
DYEAR=2005
DGENRE=dance
TTITLE0=The Hot Girlfriends - Don't Cha
TTITLE1=Inaya Day - Nasty Girl
TTITLE2=M.V.P. - Roc Ya Body Mic Check
TTITLE3=Danzel - Put Your Hands Up In The Air
TTITLE4=Royksopp - Only This Moment
TTITLE5=Juliet - Ride The Pain
TTITLE6=Speedy feat. Lumidee - Sientelo
TTITLE7=Faith Evans - Mesmerised (Freemasons Radio Mix)
TTITLE8=Daft Punk - Technologic
TTITLE9=The Chemical Brothers - The Boxer
TTITLE10=Basement Jaxx feat. Lisa Kekaula - U Don't Know Me
TTITLE11=Planet Punk - Everyday
TTITLE12=Fischerspooner - Never Win
TTITLE13=Jerma and Gaudino - Lil' Love
TTITLE14=Roll Deep - The Avenue
TTITLE15=Riotact - California Soul
TTITLE16=Benassi Borthers feat. Dhany - Make Me Feel
TTITLE17=Clubreaks - Ibiza 2005
TTITLE18=Duncan and Wilde - I Just Died
TTITLE19=Paul McCartney and Wings - Silly Love Songs (Noir and Kruse Radio Edit)
TTITLE20=Dancin' Dj's feat. Roxette - Fading Like A Flower
EXTD=
EXTT0=
EXTT1=
EXTT2=
EXTT3=
EXTT4=
EXTT5=
EXTT6=
EXTT7=
EXTT8=
EXTT9=
EXTT10=
EXTT11=
EXTT12=
EXTT13=
EXTT14=
EXTT15=
EXTT16=
EXTT17=
EXTT18=
EXTT19=
EXTT20=
PLAYORDER=
